<?xml version="1.0" standalone="no"?>
<!DOCTYPE svg PUBLIC "-//W3C//DTD SVG 20010904//EN"
 "http://www.w3.org/TR/2001/REC-SVG-20010904/DTD/svg10.dtd">
<svg version="1.0" xmlns="http://www.w3.org/2000/svg"
 width="1041.000000pt" height="2329.000000pt" viewBox="0 0 1041.000000 2329.000000"
 preserveAspectRatio="xMidYMid meet">

<g transform="translate(0.000000,2329.000000) scale(0.100000,-0.100000)"
fill="#000000" stroke="none">
<path d="M5040 23256 c-100 -23 -185 -56 -260 -100 -200 -117 -239 -197 -275
-566 -8 -91 -23 -237 -31 -325 -26 -267 -53 -464 -69 -495 l-15 -30 -68 47
c-122 84 -327 169 -467 194 -46 8 -83 8 -137 0 -118 -18 -167 -49 -303 -187
-66 -67 -130 -127 -142 -133 -57 -29 -130 -7 -260 75 -88 57 -312 163 -359
170 -29 4 -49 1 -65 -9 -13 -8 -73 -31 -132 -51 -138 -46 -175 -65 -219 -114
-73 -81 -137 -265 -124 -355 8 -51 23 -70 101 -129 118 -89 192 -186 333 -439
387 -693 543 -1278 602 -2259 15 -250 29 -724 21 -732 -3 -3 -41 -21 -84 -39
-122 -51 -199 -130 -227 -237 -14 -54 -15 -168 -1 -219 28 -103 125 -192 263
-240 l79 -28 -6 -270 c-3 -148 -8 -298 -11 -332 -6 -72 16 -62 -198 -88 -200
-24 -335 -63 -470 -136 -75 -41 -168 -127 -190 -178 l-18 -39 36 -61 c87 -142
60 -177 -219 -286 -143 -56 -380 -168 -487 -231 -209 -123 -254 -229 -156
-374 68 -103 221 -195 511 -309 294 -115 517 -171 1022 -256 143 -24 334 -53
424 -64 188 -23 242 -43 261 -94 40 -109 33 -2147 -10 -2947 -33 -610 -83
-1082 -186 -1772 -67 -451 -82 -528 -234 -1163 -202 -845 -322 -1240 -461
-1517 -87 -175 -297 -394 -587 -612 -168 -126 -188 -170 -179 -374 3 -70 24
-253 47 -407 36 -241 41 -297 38 -405 -3 -116 -6 -130 -36 -194 -56 -119 -186
-295 -546 -741 -341 -421 -679 -825 -990 -1183 -229 -264 -316 -379 -371 -487
-105 -210 -84 -371 80 -605 74 -105 115 -182 115 -213 0 -22 5 -27 25 -27 20
0 25 -5 25 -27 0 -38 -41 -86 -128 -150 -228 -168 -221 -161 -237 -217 -20
-72 -33 -186 -46 -424 -19 -343 3 -650 54 -748 22 -42 68 -83 108 -95 69 -22
7595 -38 9444 -20 616 6 641 7 674 26 93 55 101 102 108 640 8 582 -4 674 -89
738 -18 14 -74 50 -125 81 -177 108 -177 154 -7 370 215 275 240 396 127 621
-54 107 -132 218 -245 350 -57 66 -146 172 -198 235 -52 63 -177 211 -279 329
-103 118 -219 253 -260 300 -90 104 -559 686 -690 855 -225 291 -282 386 -302
501 -16 94 -6 315 20 432 55 246 61 286 67 418 4 84 2 166 -5 204 -13 81 -29
98 -256 279 -195 155 -404 358 -463 450 -77 120 -184 416 -317 882 -274 957
-423 1735 -535 2797 -70 669 -103 1185 -120 1863 -11 452 -13 1837 -3 1943 7
84 19 91 148 102 92 7 492 66 755 110 405 70 893 229 1122 366 93 56 180 136
209 191 54 105 -20 245 -180 342 -73 45 -265 136 -441 210 -74 31 -173 76
-220 100 -104 53 -107 64 -56 173 52 110 50 130 -28 206 -144 141 -357 227
-616 248 -163 13 -167 14 -187 52 -16 28 -18 62 -18 282 0 210 3 259 18 307
19 64 37 85 75 94 86 18 176 92 228 187 36 66 45 193 20 279 -34 119 -105 178
-263 218 l-43 11 0 157 c0 283 47 1049 76 1252 35 242 121 601 205 856 102
311 319 694 636 1123 133 180 168 245 158 297 -9 51 -155 264 -239 348 -78 80
-165 136 -209 136 -34 0 -55 -11 -182 -95 -117 -78 -312 -178 -392 -201 -90
-26 -115 -14 -263 130 -157 153 -185 168 -331 174 -94 4 -118 1 -200 -22 -92
-26 -236 -91 -350 -158 -51 -29 -58 -31 -74 -18 -44 37 -64 153 -95 555 -42
537 -74 654 -208 761 -67 53 -211 126 -297 149 -79 23 -366 30 -445 11z"/>
</g>
</svg>
